<svg width="800" height="200" viewBox="0 0 800 200" fill="none" xmlns="http://www.w3.org/2000/svg">
<path d="M315.714 117.143L359.857 171.429H325L285.714 121.571V171.429H257.143V28.5714H285.714V112.571L322 71.4286H358.429L315.714 117.143ZM201.429 68.5714C188.73 68.7614 176.932 75.1675 169.857 85.7143V71.4286H142.857V171.429H171.429V124.714C170.67 117.86 172.793 110.999 177.29 105.771C181.786 100.543 188.253 97.4181 195.143 97.1429C211.714 97.1429 214.286 113.429 214.286 124.714V171.429H242.857V118.429C242.857 87 232.429 68.5714 202 68.5714H201.429ZM457.143 123.714C457.252 125.808 457.252 127.906 457.143 130H382.143V131C384.658 143.306 395.737 151.964 408.286 151.429C418.023 151.852 427.513 148.293 434.571 141.571L453.571 155.857C441.394 168.284 424.528 174.979 407.143 174.286C392.738 175.197 378.644 169.82 368.507 159.545C358.369 149.27 353.182 135.106 354.286 120.714C353.99 106.52 359.608 92.8417 369.795 82.9528C379.982 73.0639 393.821 67.8545 408 68.5714C434.857 68.5714 457.143 87.5714 457.143 123.714ZM430.571 111.429C430.359 105.71 427.807 100.33 423.512 96.5478C419.217 92.766 413.557 90.9151 407.857 91.4286C395.295 90.0704 383.919 98.9186 382.143 111.429H430.571ZM28.5714 28.5714H0V171.429H85.7143V142.857H28.5714V28.5714ZM542.857 28.5714H571.429V171.429H544.429V161.429C537.476 169.994 526.879 174.763 515.857 174.286C502.436 173.941 489.753 168.073 480.801 158.067C471.85 148.061 467.425 134.805 468.571 121.429C467.207 108.028 471.537 94.6706 480.502 84.618C489.468 74.5655 502.245 68.7427 515.714 68.5714C525.736 68.1326 535.515 71.7353 542.857 78.5714V28.5714ZM545 121.429C545.909 114.754 543.883 108.013 539.446 102.945C535.008 97.8774 528.593 94.9797 521.857 94.9999C508.19 95.9923 497.835 107.746 498.571 121.429C497.835 135.112 508.19 146.865 521.857 147.857C528.593 147.877 535.008 144.98 539.446 139.912C543.883 134.844 545.909 128.103 545 121.429ZM114.286 25.7143C104.754 25.85 96.953 33.339 96.4286 42.8571C96.4286 52.7194 104.423 60.7143 114.286 60.7143C124.148 60.7143 132.143 52.7194 132.143 42.8571C131.618 33.339 123.817 25.85 114.286 25.7143ZM100 171.429H128.571V71.4286H100V171.429ZM800 14.2857V185.714C800 193.604 793.604 200 785.714 200H614.286C606.396 200 600 193.604 600 185.714V14.2857C600 6.39593 606.396 0 614.286 0H785.714C793.604 0 800 6.39593 800 14.2857ZM657.143 71.4286H628.571V171.429H657.143V71.4286ZM660.714 42.8571C660.714 32.9949 652.719 25 642.857 25C632.995 25 625 32.9949 625 42.8571C625 52.7194 632.995 60.7143 642.857 60.7143C652.719 60.7143 660.714 52.7194 660.714 42.8571ZM771.429 118.429C771.429 87 761 68.5714 730.571 68.5714C717.67 68.573 705.617 75.0012 698.429 85.7143V71.4286H671.429V171.429H700V124.714C699.242 117.86 701.364 110.999 705.861 105.771C710.358 100.543 716.824 97.4181 723.714 97.1429C740.286 97.1429 742.857 113.429 742.857 124.714V171.429H771.429V118.429Z" fill="black"/>
</svg>
