<?xml version="1.0" encoding="iso-8859-1"?>
<!-- Uploaded to: SVG Repo, www.svgrepo.com, Generator: SVG Repo Mixer Tools -->
<svg fill="#000000" height="800px" width="800px" version="1.1" id="Layer_1" xmlns="http://www.w3.org/2000/svg" xmlns:xlink="http://www.w3.org/1999/xlink" 
	 viewBox="0 0 512 512" xml:space="preserve">
<g>
	<g>
		<g>
			<path d="M188.098,241.533h94.049c25.929,0,47.025-21.095,47.025-47.025s-21.095-47.025-47.025-47.025h-94.049
				c-25.929,0-47.025,21.095-47.025,47.025C141.074,220.439,162.169,241.533,188.098,241.533z M188.098,168.384h94.049
				c14.405,0,26.125,11.72,26.125,26.125s-11.72,26.125-26.125,26.125h-94.049c-14.405,0-26.125-11.72-26.125-26.125
				S173.693,168.384,188.098,168.384z"/>
			<path d="M508.939,423.187l-38.694-38.694V51.867c0-5.771-4.679-10.45-10.45-10.45H10.45C4.679,41.417,0,46.095,0,51.867v365.746
				c0,5.771,4.679,10.45,10.45,10.45h414.694l39.46,39.46c2.041,2.041,4.715,3.061,7.389,3.061s5.348-1.02,7.389-3.061
				l29.556-29.557C513.021,433.885,513.021,427.268,508.939,423.187z M20.9,62.317h428.446v20.9H20.9V62.317z M20.9,407.162V104.116
				h428.446v259.477l-24.134-24.134c2.988-8.144,4.558-16.833,4.558-25.766c0-19.943-7.766-38.691-21.867-52.793
				c-14.101-14.102-32.85-21.867-52.793-21.867s-38.691,7.766-52.793,21.867c-2.776,2.776-5.296,5.738-7.571,8.848H109.724
				c-5.77,0-10.45,4.678-10.45,10.45v41.8c0,5.771,4.679,10.45,10.45,10.45h173.099c3.289,12.765,9.928,24.472,19.494,34.037
				c14.101,14.101,32.85,21.867,52.793,21.867c8.934,0,17.623-1.57,25.766-4.558l23.368,23.368H20.9z M408.869,313.693
				c0,14.36-5.592,27.86-15.746,38.014c-10.154,10.154-23.654,15.746-38.014,15.746s-27.859-5.592-38.014-15.746
				c-10.154-10.153-15.746-23.653-15.746-38.014s5.593-27.86,15.746-38.014c10.154-10.154,23.654-15.746,38.014-15.746
				s27.859,5.592,38.014,15.746C403.277,285.833,408.869,299.333,408.869,313.693z M284.078,290.648
				c-2.161,6.685-3.374,13.704-3.576,20.9H120.174v-20.9H284.078z M471.994,445.355l-71.999-72c2.766-2.09,5.413-4.375,7.907-6.87
				s4.78-5.141,6.87-7.907l71.999,71.999L471.994,445.355z"/>
			<path d="M110.769,356.157h-1.045c-5.77,0-10.45,4.678-10.45,10.45s4.679,10.45,10.45,10.45h1.045c5.77,0,10.45-4.678,10.45-10.45
				S116.539,356.157,110.769,356.157z"/>
			<path d="M263.86,356.157H151.523c-5.77,0-10.45,4.678-10.45,10.45s4.679,10.45,10.45,10.45H263.86
				c5.77,0,10.45-4.678,10.45-10.45S269.63,356.157,263.86,356.157z"/>
		</g>
	</g>
</g>
</svg>