<svg width="619" height="188" viewBox="0 0 619 188" fill="none" xmlns="http://www.w3.org/2000/svg">
<path d="M44.696 0.0559978C47.128 0.0559978 49.656 0.503998 52.28 1.4C54.904 2.296 57.208 3.448 59.192 4.856C58.552 8.12 57.944 11.064 57.368 13.688C56.856 16.312 56.376 18.712 55.928 20.888C55.48 23 55.032 24.952 54.584 26.744C54.2 28.472 53.816 30.104 53.432 31.64C51.896 37.4 50.296 42.616 48.632 47.288C47.032 51.896 45.304 56.056 43.448 59.768C41.656 63.48 39.736 66.776 37.688 69.656C35.704 72.536 33.56 75.064 31.256 77.24C29.016 79.352 26.776 81.08 24.536 82.424C22.296 83.768 20.216 84.632 18.296 85.016C15.736 85.016 13.368 84.728 11.192 84.152C9.016 83.576 7.128 82.776 5.528 81.752C3.992 80.792 2.776 79.608 1.88 78.2C1.048 76.856 0.632 75.352 0.632 73.688C0.632 71.896 1.08 69.656 1.976 66.968C2.872 64.216 4.248 60.984 6.104 57.272C6.872 57.336 7.768 57.528 8.792 57.848C9.816 58.168 10.84 58.552 11.864 59C12.888 59.448 13.816 59.96 14.648 60.536C15.48 61.048 16.088 61.56 16.472 62.072C14.424 64.184 12.76 66.52 11.48 69.08C10.2 71.576 9.56 73.752 9.56 75.608C9.56 76.696 9.752 77.656 10.136 78.488C10.584 79.384 11.32 80.184 12.344 80.888C16.248 79.416 20.056 76.664 23.768 72.632C27.48 68.664 30.776 63.704 33.656 57.752C35.384 54.232 36.952 50.2 38.36 45.656C39.768 41.112 40.952 36.568 41.912 32.024C42.936 27.416 43.704 23.032 44.216 18.872C44.792 14.648 45.08 11.096 45.08 8.216C45.08 7.768 45.048 7.16 44.984 6.392C44.984 5.56 44.952 4.72799 44.888 3.89599C44.888 2.99999 44.856 2.2 44.792 1.496C44.728 0.791998 44.696 0.311998 44.696 0.0559978ZM66.3988 74.36C62.7508 73.976 59.8388 72.376 57.6628 69.56C55.4868 66.744 54.3988 63.16 54.3988 58.808C54.3988 56.248 54.7828 53.592 55.5508 50.84C56.3188 48.088 57.4068 45.432 58.8148 42.872C60.2228 40.248 61.8868 37.784 63.8068 35.48C65.7268 33.176 67.8068 31.192 70.0468 29.528C73.5668 26.904 76.8628 25.592 79.9348 25.592C81.9828 26.68 83.9988 28.952 85.9828 32.408C86.3028 32.408 86.5908 32.408 86.8468 32.408C87.1028 32.344 87.3908 32.312 87.7108 32.312C91.1028 32.312 92.7988 35.32 92.7988 41.336C92.7988 45.368 92.1268 49.208 90.7828 52.856C89.5028 56.44 87.6788 59.704 85.3108 62.648C83.0068 65.592 80.2228 68.088 76.9588 70.136C73.7588 72.12 70.2388 73.528 66.3988 74.36ZM71.2948 44.12C70.2068 45.592 69.1828 47.192 68.2228 48.92C67.2628 50.648 66.4308 52.408 65.7268 54.2C65.0228 55.928 64.4788 57.624 64.0948 59.288C63.7108 60.888 63.5188 62.328 63.5188 63.608C63.5188 65.144 63.7748 66.616 64.2868 68.024C64.7988 69.432 65.3748 70.232 66.0148 70.424C68.8948 69.784 71.5188 68.6 73.8868 66.872C76.3188 65.08 78.3988 62.872 80.1268 60.248C81.9188 57.624 83.2948 54.648 84.2548 51.32C85.2788 47.992 85.7908 44.44 85.7908 40.664C85.7908 39 85.6948 37.688 85.5028 36.728C85.3108 35.768 84.9908 34.936 84.5428 34.232C81.7268 35.064 79.1988 36.408 76.9588 38.264C74.7828 40.12 72.8948 42.072 71.2948 44.12ZM112.038 24.44C113.702 24.952 115.27 26.104 116.742 27.896C118.214 29.624 119.302 31.544 120.006 33.656C119.302 35.384 118.214 37.464 116.742 39.896C115.27 42.328 113.798 44.824 112.326 47.384C110.854 49.88 109.51 52.28 108.294 54.584C107.142 56.824 106.47 58.68 106.278 60.152C107.302 59.064 108.422 57.816 109.638 56.408C110.918 54.936 112.134 53.496 113.286 52.088C114.502 50.616 115.622 49.304 116.646 48.152C117.67 46.936 118.47 46.04 119.046 45.464C120.262 44.184 121.702 42.712 123.366 41.048C125.03 39.32 126.758 37.72 128.55 36.248C130.406 34.712 132.262 33.432 134.118 32.408C135.974 31.32 137.67 30.776 139.206 30.776C140.87 30.776 142.246 31.352 143.334 32.504C144.486 33.592 145.382 34.744 146.022 35.96C146.022 36.088 145.766 36.28 145.254 36.536C144.806 36.728 144.134 37.336 143.238 38.36C142.342 39.512 141.318 41.112 140.166 43.16C139.078 45.144 137.99 47.32 136.902 49.688C135.878 51.992 135.014 54.36 134.31 56.792C133.606 59.224 133.254 61.432 133.254 63.416C133.254 65.016 133.446 66.04 133.83 66.488C134.278 66.936 134.886 67.16 135.654 67.16C136.358 67.16 137.094 67 137.862 66.68C138.63 66.36 139.238 66.2 139.686 66.2C139.942 66.328 140.134 66.616 140.262 67.064C140.454 67.448 140.55 67.8 140.55 68.12C140.038 68.568 139.43 69.016 138.726 69.464C138.022 69.912 137.286 70.328 136.518 70.712C135.75 71.096 134.982 71.416 134.214 71.672C133.51 71.928 132.87 72.056 132.294 72.056C130.438 72.056 128.902 71.768 127.686 71.192C126.534 70.68 125.606 69.976 124.902 69.08C124.262 68.184 123.814 67.128 123.558 65.912C123.302 64.632 123.174 63.288 123.174 61.88C123.174 61.112 123.238 60.248 123.366 59.288C123.494 58.328 123.75 57.208 124.134 55.928C124.518 54.584 125.062 53.016 125.766 51.224C126.47 49.368 127.366 47.16 128.454 44.6C128.326 44.6 127.462 45.048 125.862 45.944C124.262 46.84 122.534 48.216 120.678 50.072C117.67 52.952 114.95 55.8 112.518 58.616C110.15 61.432 107.718 64.568 105.222 68.024C103.814 70.008 102.566 71.672 101.478 73.016C100.454 74.424 99.5578 75.352 98.7898 75.8C97.4458 75.032 96.4538 73.944 95.8138 72.536C95.1738 71.192 94.6938 69.784 94.3738 68.312C94.3738 67.096 94.5338 65.56 94.8538 63.704C95.2378 61.848 95.7178 59.8 96.2938 57.56C96.9338 55.256 97.7018 52.856 98.5978 50.36C99.4938 47.864 100.486 45.368 101.574 42.872C104.006 37.24 106.214 32.824 108.198 29.624C110.246 26.424 111.526 24.696 112.038 24.44ZM180.489 32.216C181.129 32.216 181.865 32.344 182.697 32.6C183.593 32.792 184.393 33.08 185.097 33.464C185.801 33.784 186.377 34.136 186.825 34.52C187.337 34.904 187.593 35.256 187.593 35.576C186.313 38.264 185.129 40.984 184.041 43.736C182.953 46.424 182.025 49.016 181.257 51.512C180.489 54.008 179.881 56.344 179.433 58.52C179.049 60.696 178.857 62.584 178.857 64.184C178.857 65.976 179.049 67.48 179.433 68.696C179.817 69.848 180.457 70.68 181.353 71.192C180.585 71.704 179.593 72.12 178.377 72.44C177.161 72.76 176.073 72.92 175.113 72.92C171.657 72.92 169.929 70.552 169.929 65.816C169.929 62.168 171.145 57.176 173.577 50.84C172.297 53.784 170.825 56.568 169.161 59.192C167.497 61.752 165.801 64.024 164.073 66.008C162.345 67.992 160.585 69.624 158.793 70.904C157.065 72.12 155.465 72.856 153.993 73.112C151.625 72.984 149.705 71.864 148.233 69.752C146.761 67.576 146.025 64.824 146.025 61.496C146.025 57.912 146.793 54.136 148.329 50.168C149.865 46.2 151.817 42.52 154.185 39.128C156.617 35.736 159.241 32.92 162.057 30.68C164.873 28.376 167.593 27.16 170.217 27.032C170.857 27.224 171.561 27.608 172.329 28.184C173.161 28.76 173.929 29.432 174.633 30.2C175.401 30.968 176.041 31.768 176.553 32.6C177.065 33.368 177.353 34.04 177.417 34.616C174.857 35 172.201 36.248 169.449 38.36C166.761 40.472 164.297 43.032 162.057 46.04C159.881 48.984 158.089 52.152 156.681 55.544C155.273 58.936 154.569 62.104 154.569 65.048C154.569 66.264 155.017 67.032 155.913 67.352C157.769 66.968 159.913 65.4 162.345 62.648C164.777 59.832 167.721 55.512 171.177 49.688C171.817 48.536 172.521 47.256 173.289 45.848C174.121 44.44 174.953 42.968 175.785 41.432C176.617 39.896 177.417 38.36 178.185 36.824C179.017 35.224 179.785 33.688 180.489 32.216ZM195.574 34.232C195.254 33.848 194.966 33.048 194.71 31.832C194.454 30.552 194.326 29.464 194.326 28.568C195.99 28.696 197.59 28.824 199.126 28.952C200.662 29.016 202.07 29.08 203.35 29.144C204.31 27.224 205.334 25.336 206.422 23.48C207.574 21.56 208.662 19.832 209.686 18.296C210.774 16.696 211.766 15.352 212.662 14.264C213.622 13.176 214.358 12.472 214.87 12.152C215.51 12.152 216.31 12.28 217.27 12.536C218.294 12.728 219.318 13.016 220.342 13.4C221.366 13.72 222.294 14.072 223.126 14.456C223.958 14.84 224.534 15.224 224.854 15.608C222.934 18.04 221.27 20.312 219.862 22.424C218.518 24.472 217.046 26.84 215.446 29.528C216.726 29.528 218.006 29.496 219.286 29.432C220.63 29.368 221.974 29.272 223.318 29.144C223.638 29.464 223.894 29.88 224.086 30.392C224.278 30.84 224.374 31.32 224.374 31.832C221.238 32.984 217.43 33.624 212.95 33.752C211.35 36.824 209.91 39.896 208.63 42.968C207.414 45.976 206.358 48.888 205.462 51.704C204.63 54.52 203.958 57.176 203.446 59.672C202.998 62.168 202.774 64.408 202.774 66.392C202.774 69.208 203.83 70.776 205.942 71.096C207.862 70.84 209.686 70.36 211.414 69.656C213.142 68.952 214.678 68.056 216.022 66.968C216.406 67.544 216.63 68.024 216.694 68.408C216.31 68.984 215.638 69.656 214.678 70.424C213.782 71.192 212.79 71.928 211.702 72.632C210.614 73.4 209.558 74.04 208.534 74.552C207.51 75.064 206.742 75.352 206.23 75.416C204.63 75.352 203.03 75 201.43 74.36C199.83 73.72 198.358 72.92 197.014 71.96C195.734 71 194.678 69.944 193.846 68.792C193.014 67.576 192.598 66.392 192.598 65.24C192.598 63.704 192.79 61.784 193.174 59.48C193.622 57.112 194.23 54.552 194.998 51.8C195.766 49.048 196.662 46.168 197.686 43.16C198.71 40.152 199.83 37.176 201.046 34.232H195.574ZM255.819 32.216C256.459 32.216 257.195 32.344 258.028 32.6C258.924 32.792 259.723 33.08 260.427 33.464C261.132 33.784 261.708 34.136 262.155 34.52C262.667 34.904 262.924 35.256 262.924 35.576C261.643 38.264 260.459 40.984 259.372 43.736C258.283 46.424 257.355 49.016 256.587 51.512C255.819 54.008 255.211 56.344 254.763 58.52C254.379 60.696 254.187 62.584 254.187 64.184C254.187 65.976 254.379 67.48 254.763 68.696C255.147 69.848 255.787 70.68 256.684 71.192C255.915 71.704 254.923 72.12 253.707 72.44C252.491 72.76 251.403 72.92 250.443 72.92C246.987 72.92 245.259 70.552 245.259 65.816C245.259 62.168 246.475 57.176 248.907 50.84C247.627 53.784 246.155 56.568 244.491 59.192C242.827 61.752 241.131 64.024 239.403 66.008C237.675 67.992 235.915 69.624 234.123 70.904C232.395 72.12 230.795 72.856 229.323 73.112C226.955 72.984 225.035 71.864 223.563 69.752C222.091 67.576 221.355 64.824 221.355 61.496C221.355 57.912 222.123 54.136 223.659 50.168C225.195 46.2 227.147 42.52 229.515 39.128C231.947 35.736 234.571 32.92 237.387 30.68C240.203 28.376 242.923 27.16 245.547 27.032C246.187 27.224 246.891 27.608 247.659 28.184C248.491 28.76 249.259 29.432 249.963 30.2C250.731 30.968 251.371 31.768 251.883 32.6C252.395 33.368 252.683 34.04 252.747 34.616C250.187 35 247.531 36.248 244.779 38.36C242.091 40.472 239.627 43.032 237.387 46.04C235.211 48.984 233.419 52.152 232.011 55.544C230.603 58.936 229.899 62.104 229.899 65.048C229.899 66.264 230.347 67.032 231.243 67.352C233.099 66.968 235.243 65.4 237.675 62.648C240.107 59.832 243.051 55.512 246.507 49.688C247.147 48.536 247.851 47.256 248.619 45.848C249.451 44.44 250.283 42.968 251.115 41.432C251.947 39.896 252.747 38.36 253.515 36.824C254.347 35.224 255.115 33.688 255.819 32.216ZM282.385 24.44C284.049 24.952 285.617 26.104 287.089 27.896C288.561 29.624 289.649 31.544 290.353 33.656C289.649 35.384 288.561 37.464 287.089 39.896C285.617 42.328 284.145 44.824 282.673 47.384C281.201 49.88 279.857 52.28 278.641 54.584C277.489 56.824 276.817 58.68 276.625 60.152C277.649 59.064 278.769 57.816 279.985 56.408C281.265 54.936 282.481 53.496 283.633 52.088C284.849 50.616 285.969 49.304 286.993 48.152C288.017 46.936 288.817 46.04 289.393 45.464C290.609 44.184 292.049 42.712 293.713 41.048C295.377 39.32 297.105 37.72 298.897 36.248C300.753 34.712 302.609 33.432 304.465 32.408C306.321 31.32 308.017 30.776 309.553 30.776C311.217 30.776 312.593 31.352 313.681 32.504C314.833 33.592 315.729 34.744 316.369 35.96C316.369 36.088 316.113 36.28 315.601 36.536C315.153 36.728 314.481 37.336 313.585 38.36C312.689 39.512 311.665 41.112 310.513 43.16C309.425 45.144 308.337 47.32 307.249 49.688C306.225 51.992 305.361 54.36 304.657 56.792C303.953 59.224 303.601 61.432 303.601 63.416C303.601 65.016 303.793 66.04 304.177 66.488C304.625 66.936 305.233 67.16 306.001 67.16C306.705 67.16 307.441 67 308.209 66.68C308.977 66.36 309.585 66.2 310.033 66.2C310.289 66.328 310.481 66.616 310.609 67.064C310.801 67.448 310.897 67.8 310.897 68.12C310.385 68.568 309.777 69.016 309.073 69.464C308.369 69.912 307.633 70.328 306.865 70.712C306.097 71.096 305.329 71.416 304.561 71.672C303.857 71.928 303.217 72.056 302.641 72.056C300.785 72.056 299.249 71.768 298.033 71.192C296.881 70.68 295.953 69.976 295.249 69.08C294.609 68.184 294.161 67.128 293.905 65.912C293.649 64.632 293.521 63.288 293.521 61.88C293.521 61.112 293.585 60.248 293.713 59.288C293.841 58.328 294.097 57.208 294.481 55.928C294.865 54.584 295.409 53.016 296.113 51.224C296.817 49.368 297.713 47.16 298.801 44.6C298.673 44.6 297.809 45.048 296.209 45.944C294.609 46.84 292.881 48.216 291.025 50.072C288.017 52.952 285.297 55.8 282.865 58.616C280.497 61.432 278.065 64.568 275.569 68.024C274.161 70.008 272.913 71.672 271.825 73.016C270.801 74.424 269.905 75.352 269.137 75.8C267.793 75.032 266.801 73.944 266.161 72.536C265.521 71.192 265.041 69.784 264.721 68.312C264.721 67.096 264.881 65.56 265.201 63.704C265.585 61.848 266.065 59.8 266.641 57.56C267.281 55.256 268.049 52.856 268.945 50.36C269.841 47.864 270.833 45.368 271.921 42.872C274.353 37.24 276.561 32.824 278.545 29.624C280.593 26.424 281.873 24.696 282.385 24.44ZM33.491 146.528C33.491 144.224 33.843 141.248 34.547 137.6C35.315 133.888 36.275 129.92 37.427 125.696C38.643 121.408 40.019 117.056 41.555 112.64C43.091 108.16 44.659 103.968 46.259 100.064C47.859 96.16 49.427 92.736 50.963 89.792C52.499 86.848 53.875 84.736 55.091 83.456C55.731 83.52 56.563 83.776 57.587 84.224C58.675 84.608 59.763 85.088 60.851 85.664C61.939 86.24 62.931 86.88 63.827 87.584C64.723 88.224 65.299 88.832 65.555 89.408C63.699 91.072 61.843 93.6 59.987 96.992C58.195 100.32 56.435 104.128 54.707 108.416C53.043 112.704 51.475 117.248 50.003 122.048C48.531 126.784 47.251 131.392 46.163 135.872C45.075 140.352 44.211 144.512 43.571 148.352C42.995 152.192 42.707 155.296 42.707 157.664C42.707 158.752 42.803 159.424 42.995 159.68C41.587 159.616 40.563 159.36 39.923 158.912C39.283 158.528 38.771 158.08 38.387 157.568C38.067 157.12 37.747 156.64 37.427 156.128C37.171 155.68 36.755 155.328 36.179 155.072C35.731 154.88 35.347 154.432 35.027 153.728C34.707 153.024 34.419 152.256 34.163 151.424C33.971 150.528 33.811 149.632 33.683 148.736C33.555 147.84 33.491 147.104 33.491 146.528ZM51.0403 183.776C50.1443 183.52 49.6323 182.56 49.5043 180.896C49.2483 180.064 49.0563 179.072 48.9283 177.92C48.8643 176.768 48.8323 175.456 48.8323 173.984C48.8323 172.64 49.0563 170.784 49.5043 168.416C49.9523 166.112 50.5603 163.488 51.3283 160.544C52.1603 157.6 53.1523 154.432 54.3043 151.04C55.4563 147.584 56.7363 144.096 58.1443 140.576C59.8723 136.16 61.3763 132.352 62.6563 129.152C63.9363 125.888 64.9923 123.072 65.8243 120.704C66.7203 118.336 67.4243 116.384 67.9363 114.848C68.5123 113.312 68.9603 112 69.2803 110.912C69.5363 110.144 69.9203 109.216 70.4323 108.128C70.9443 107.04 71.5203 105.952 72.1603 104.864C72.8643 103.712 73.5683 102.656 74.2723 101.696C74.9763 100.672 75.6163 99.904 76.1923 99.392C78.4323 99.712 80.5443 100.288 82.5283 101.12C84.5123 101.952 85.7283 102.752 86.1763 103.52C85.2803 104.352 84.2563 105.664 83.1043 107.456C81.9523 109.184 80.8323 111.104 79.7443 113.216C78.6563 115.264 77.6643 117.376 76.7683 119.552C75.8723 121.728 75.2003 123.648 74.7523 125.312C75.3923 124.224 76.2243 123.04 77.2483 121.76C78.2723 120.48 79.8403 118.72 81.9523 116.48C84.3203 114.048 86.5283 112.192 88.5763 110.912C90.6883 109.568 92.5123 108.896 94.0483 108.896C96.4803 108.896 98.4643 109.568 100 110.912C101.6 112.256 102.4 113.984 102.4 116.096C102.4 120.704 101.632 125.28 100.096 129.824C98.5603 134.304 96.3523 138.368 93.4723 142.016C92.3843 143.424 91.1043 144.768 89.6323 146.048C88.1603 147.328 86.6243 148.48 85.0243 149.504C83.4243 150.464 81.8563 151.232 80.3203 151.808C78.7843 152.384 77.4083 152.672 76.1923 152.672C75.0403 152.672 74.0163 152.448 73.1203 152C72.2883 151.488 71.7123 150.88 71.3923 150.176C73.8883 148.704 76.3203 146.656 78.6883 144.032C81.0563 141.408 83.2323 138.4 85.2163 135.008C87.2643 131.552 89.0243 127.84 90.4963 123.872C92.0323 119.904 93.1843 115.872 93.9523 111.776C91.5203 113.056 89.3123 114.464 87.3283 116C85.4083 117.472 83.4883 119.424 81.5683 121.856C79.2643 124.672 77.4403 126.944 76.0963 128.672C74.7523 130.4 73.6323 131.872 72.7363 133.088C71.9043 134.304 71.2003 135.456 70.6243 136.544C70.1123 137.568 69.5363 138.848 68.8963 140.384C68.0003 142.432 66.9443 145.152 65.7283 148.544C64.5763 151.872 63.3603 155.616 62.0803 159.776C60.8643 163.936 59.6163 168.352 58.3363 173.024C57.1203 177.76 55.9363 182.464 54.7843 187.136C54.0803 187.008 53.4723 186.496 52.9603 185.6C52.4483 185.024 52.0643 184.608 51.8083 184.352C51.6163 184.096 51.3603 183.904 51.0403 183.776ZM138.021 113.216C138.661 113.216 139.397 113.344 140.229 113.6C141.125 113.792 141.925 114.08 142.629 114.464C143.333 114.784 143.909 115.136 144.357 115.52C144.869 115.904 145.125 116.256 145.125 116.576C143.845 119.264 142.661 121.984 141.573 124.736C140.485 127.424 139.557 130.016 138.789 132.512C138.021 135.008 137.413 137.344 136.965 139.52C136.581 141.696 136.389 143.584 136.389 145.184C136.389 146.976 136.581 148.48 136.965 149.696C137.349 150.848 137.989 151.68 138.885 152.192C138.117 152.704 137.125 153.12 135.909 153.44C134.693 153.76 133.605 153.92 132.645 153.92C129.189 153.92 127.461 151.552 127.461 146.816C127.461 143.168 128.677 138.176 131.109 131.84C129.829 134.784 128.357 137.568 126.693 140.192C125.029 142.752 123.333 145.024 121.605 147.008C119.877 148.992 118.117 150.624 116.325 151.904C114.597 153.12 112.997 153.856 111.525 154.112C109.157 153.984 107.237 152.864 105.765 150.752C104.293 148.576 103.557 145.824 103.557 142.496C103.557 138.912 104.325 135.136 105.861 131.168C107.397 127.2 109.349 123.52 111.717 120.128C114.149 116.736 116.773 113.92 119.589 111.68C122.405 109.376 125.125 108.16 127.749 108.032C128.389 108.224 129.093 108.608 129.861 109.184C130.693 109.76 131.461 110.432 132.165 111.2C132.933 111.968 133.573 112.768 134.085 113.6C134.597 114.368 134.885 115.04 134.949 115.616C132.389 116 129.733 117.248 126.981 119.36C124.293 121.472 121.829 124.032 119.589 127.04C117.413 129.984 115.621 133.152 114.213 136.544C112.805 139.936 112.101 143.104 112.101 146.048C112.101 147.264 112.549 148.032 113.445 148.352C115.301 147.968 117.445 146.4 119.877 143.648C122.309 140.832 125.253 136.512 128.709 130.688C129.349 129.536 130.053 128.256 130.821 126.848C131.653 125.44 132.485 123.968 133.317 122.432C134.149 120.896 134.949 119.36 135.717 117.824C136.549 116.224 137.317 114.688 138.021 113.216ZM146.731 150.08C147.051 148.224 147.595 145.792 148.363 142.784C149.195 139.712 150.155 136.48 151.243 133.088C152.331 129.632 153.483 126.176 154.699 122.72C155.915 119.264 157.099 116.16 158.251 113.408C159.083 111.424 159.819 109.888 160.459 108.8C161.099 107.648 161.803 106.688 162.571 105.92C163.467 106.048 164.395 106.272 165.355 106.592C166.315 106.912 167.243 107.296 168.139 107.744C169.035 108.192 169.835 108.672 170.539 109.184C171.243 109.632 171.787 110.08 172.171 110.528C170.443 112.576 168.907 114.912 167.563 117.536C166.283 120.16 164.971 123.52 163.627 127.616C167.083 124.544 170.123 121.6 172.747 118.784C175.435 115.968 177.931 112.832 180.235 109.376C180.619 109.056 181.291 108.896 182.251 108.896C183.147 108.896 184.011 109.056 184.843 109.376C185.675 109.632 186.251 110.016 186.571 110.528C185.419 113.6 184.843 116.64 184.843 119.648C184.843 122.464 185.259 124.576 186.091 125.984C186.027 126.368 185.579 127.104 184.747 128.192C183.979 129.28 183.115 130.304 182.155 131.264C180.427 130.368 178.891 129.152 177.547 127.616C176.203 126.016 175.211 124.288 174.571 122.432C171.563 124.544 169.003 126.624 166.891 128.672C164.779 130.656 162.955 132.896 161.419 135.392C159.947 137.824 158.667 140.64 157.579 143.84C156.555 147.04 155.563 150.848 154.603 155.264C154.027 155.2 153.323 154.976 152.491 154.592C151.723 154.272 150.923 153.856 150.091 153.344C149.323 152.832 148.619 152.288 147.979 151.712C147.339 151.136 146.923 150.592 146.731 150.08ZM184.489 150.08C184.809 148.224 185.353 145.792 186.121 142.784C186.953 139.712 187.913 136.48 189.001 133.088C190.089 129.632 191.241 126.176 192.457 122.72C193.673 119.264 194.857 116.16 196.009 113.408C196.841 111.424 197.577 109.888 198.217 108.8C198.857 107.648 199.561 106.688 200.329 105.92C201.225 106.048 202.153 106.272 203.113 106.592C204.073 106.912 205.001 107.296 205.897 107.744C206.793 108.192 207.593 108.672 208.297 109.184C209.001 109.632 209.545 110.08 209.929 110.528C208.201 112.576 206.665 114.912 205.321 117.536C204.041 120.16 202.729 123.52 201.385 127.616C204.841 124.544 207.881 121.6 210.505 118.784C213.193 115.968 215.689 112.832 217.993 109.376C218.377 109.056 219.049 108.896 220.009 108.896C220.905 108.896 221.769 109.056 222.601 109.376C223.433 109.632 224.009 110.016 224.329 110.528C223.177 113.6 222.601 116.64 222.601 119.648C222.601 122.464 223.017 124.576 223.849 125.984C223.785 126.368 223.337 127.104 222.505 128.192C221.737 129.28 220.873 130.304 219.913 131.264C218.185 130.368 216.649 129.152 215.305 127.616C213.961 126.016 212.969 124.288 212.329 122.432C209.321 124.544 206.761 126.624 204.649 128.672C202.537 130.656 200.713 132.896 199.177 135.392C197.705 137.824 196.425 140.64 195.337 143.84C194.313 147.04 193.321 150.848 192.361 155.264C191.785 155.2 191.081 154.976 190.249 154.592C189.481 154.272 188.681 153.856 187.849 153.344C187.081 152.832 186.377 152.288 185.737 151.712C185.097 151.136 184.681 150.592 184.489 150.08ZM257.672 113.216C258.312 113.216 259.048 113.344 259.88 113.6C260.776 113.792 261.576 114.08 262.28 114.464C262.984 114.784 263.56 115.136 264.008 115.52C264.52 115.904 264.776 116.256 264.776 116.576C263.496 119.264 262.312 121.984 261.224 124.736C260.136 127.424 259.208 130.016 258.44 132.512C257.672 135.008 257.064 137.344 256.616 139.52C256.232 141.696 256.04 143.584 256.04 145.184C256.04 146.976 256.232 148.48 256.616 149.696C257 150.848 257.64 151.68 258.536 152.192C257.768 152.704 256.776 153.12 255.56 153.44C254.344 153.76 253.256 153.92 252.296 153.92C248.84 153.92 247.112 151.552 247.112 146.816C247.112 143.168 248.328 138.176 250.76 131.84C249.48 134.784 248.008 137.568 246.344 140.192C244.68 142.752 242.984 145.024 241.256 147.008C239.528 148.992 237.768 150.624 235.976 151.904C234.248 153.12 232.648 153.856 231.176 154.112C228.808 153.984 226.888 152.864 225.416 150.752C223.944 148.576 223.208 145.824 223.208 142.496C223.208 138.912 223.976 135.136 225.512 131.168C227.048 127.2 229 123.52 231.368 120.128C233.8 116.736 236.424 113.92 239.24 111.68C242.056 109.376 244.776 108.16 247.4 108.032C248.04 108.224 248.744 108.608 249.512 109.184C250.344 109.76 251.112 110.432 251.816 111.2C252.584 111.968 253.224 112.768 253.736 113.6C254.248 114.368 254.536 115.04 254.6 115.616C252.04 116 249.384 117.248 246.632 119.36C243.944 121.472 241.48 124.032 239.24 127.04C237.064 129.984 235.272 133.152 233.864 136.544C232.456 139.936 231.752 143.104 231.752 146.048C231.752 147.264 232.2 148.032 233.096 148.352C234.952 147.968 237.096 146.4 239.528 143.648C241.96 140.832 244.904 136.512 248.36 130.688C249 129.536 249.704 128.256 250.472 126.848C251.304 125.44 252.136 123.968 252.968 122.432C253.8 120.896 254.6 119.36 255.368 117.824C256.2 116.224 256.968 114.688 257.672 113.216ZM248.731 180.608C248.731 180.224 248.859 179.872 249.115 179.552C249.371 179.232 249.659 178.912 249.979 178.592C250.747 179.296 251.419 179.84 251.995 180.224C252.507 180.608 253.019 180.928 253.531 181.184C253.979 181.44 254.459 181.6 254.971 181.664C255.483 181.728 256.091 181.76 256.795 181.76C260.123 181.76 263.291 180.864 266.299 179.072C269.307 177.344 272.123 174.816 274.747 171.488C277.435 168.16 279.867 164.096 282.043 159.296C284.219 154.496 286.139 149.056 287.803 142.976C287.035 143.744 286.075 144.608 284.923 145.568C283.835 146.464 282.683 147.328 281.467 148.16C280.251 148.992 279.035 149.76 277.819 150.464C276.667 151.168 275.675 151.68 274.843 152C273.755 151.808 272.731 151.36 271.771 150.656C270.875 149.888 270.075 148.96 269.371 147.872C268.667 146.784 268.123 145.568 267.739 144.224C267.355 142.816 267.163 141.344 267.163 139.808C267.163 137.312 267.611 134.752 268.507 132.128C269.467 129.504 270.715 126.944 272.251 124.448C273.787 121.888 275.579 119.488 277.627 117.248C279.739 115.008 281.947 113.056 284.251 111.392C286.619 109.728 288.987 108.416 291.355 107.456C293.787 106.432 296.155 105.92 298.459 105.92C300.699 105.92 302.363 106.4 303.451 107.36C304.603 108.256 305.435 109.824 305.947 112.064C305.243 111.68 304.347 111.488 303.259 111.488C301.723 111.488 299.931 112.096 297.883 113.312C295.899 114.528 293.851 116.128 291.739 118.112C289.691 120.032 287.643 122.272 285.595 124.832C283.547 127.328 281.723 129.888 280.123 132.512C278.587 135.136 277.307 137.696 276.283 140.192C275.323 142.688 274.843 144.928 274.843 146.912C274.843 147.36 274.875 147.648 274.939 147.776C275.003 147.84 275.099 147.872 275.227 147.872C275.803 147.872 276.571 147.552 277.531 146.912C278.555 146.272 279.675 145.472 280.891 144.512C282.171 143.488 283.483 142.336 284.827 141.056C286.171 139.712 287.451 138.368 288.667 137.024C291.419 133.952 293.915 130.528 296.155 126.752C298.459 122.912 300.283 119.2 301.627 115.616C303.355 115.744 304.891 116.032 306.235 116.48C307.579 116.928 308.507 117.408 309.019 117.92C306.843 122.912 305.083 127.104 303.739 130.496C302.459 133.888 301.339 136.896 300.379 139.52C298.651 144.128 297.019 148.32 295.483 152.096C294.011 155.936 292.475 159.456 290.875 162.656C289.339 165.92 287.643 168.928 285.787 171.68C283.995 174.496 281.947 177.184 279.643 179.744C278.555 180.96 277.307 182.016 275.899 182.912C274.555 183.872 273.147 184.672 271.675 185.312C270.267 185.952 268.859 186.432 267.451 186.752C266.107 187.072 264.859 187.232 263.707 187.232C262.171 187.232 260.603 187.04 259.003 186.656C257.403 186.336 255.931 185.856 254.587 185.216C253.179 184.64 251.963 183.936 250.939 183.104C249.915 182.336 249.179 181.504 248.731 180.608ZM336.494 149.888C335.278 148.864 334.446 147.584 333.998 146.048C333.614 144.512 333.422 143.2 333.422 142.112C333.422 140.768 333.582 139.616 333.902 138.656C333.646 138.656 333.07 139.168 332.174 140.192C331.278 141.216 330.286 142.432 329.198 143.84C328.174 145.248 327.15 146.624 326.126 147.968C325.102 149.312 324.334 150.304 323.822 150.944C322.99 151.84 322.19 152.544 321.422 153.056C320.718 153.568 320.142 153.856 319.694 153.92C318.67 153.856 317.582 153.632 316.43 153.248C315.342 152.928 314.286 152.448 313.262 151.808C312.302 151.168 311.438 150.4 310.67 149.504C309.966 148.608 309.486 147.584 309.23 146.432C309.23 144.64 309.262 143.168 309.326 142.016C309.454 140.864 309.678 139.616 309.998 138.272C310.574 135.84 311.406 133.088 312.494 130.016C313.646 126.944 314.958 123.936 316.43 120.992C317.902 117.984 319.534 115.2 321.326 112.64C323.182 110.016 325.134 107.968 327.182 106.496C327.758 106.496 328.43 106.56 329.198 106.688C329.966 106.752 330.734 106.912 331.502 107.168C332.334 107.424 333.102 107.744 333.806 108.128C334.574 108.448 335.214 108.896 335.726 109.472C335.15 110.112 333.678 112.256 331.31 115.904C329.006 119.552 326.414 124.8 323.534 131.648C323.214 132.352 322.83 133.376 322.382 134.72C321.934 136.064 321.486 137.472 321.038 138.944C320.59 140.416 320.206 141.856 319.886 143.264C319.63 144.672 319.502 145.792 319.502 146.624C319.502 147.136 319.566 147.52 319.694 147.776C319.886 148.032 320.046 148.224 320.174 148.352C321.134 147.968 322.35 146.912 323.822 145.184C325.294 143.456 327.342 140.8 329.966 137.216C330.606 136.32 331.342 135.296 332.174 134.144C333.07 132.992 333.966 131.776 334.862 130.496C335.758 129.152 336.59 127.776 337.358 126.368C338.19 124.96 338.862 123.552 339.374 122.144C339.63 121.376 339.95 120.48 340.334 119.456C340.782 118.368 341.294 117.248 341.87 116.096C342.51 114.944 343.214 113.792 343.982 112.64C344.814 111.424 345.774 110.304 346.862 109.28C347.694 109.28 348.59 109.376 349.55 109.568C350.51 109.76 351.406 110.016 352.238 110.336C353.134 110.592 353.902 110.912 354.542 111.296C355.182 111.616 355.662 111.968 355.982 112.352C354.83 115.168 353.55 117.952 352.142 120.704C350.734 123.456 349.422 126.176 348.206 128.864C346.99 131.488 345.966 134.112 345.134 136.736C344.302 139.36 343.886 141.92 343.886 144.416C343.886 145.76 343.982 146.944 344.174 147.968C344.43 148.928 344.686 149.76 344.942 150.464C345.198 151.104 345.422 151.648 345.614 152.096C345.87 152.544 345.998 152.928 345.998 153.248C345.998 153.312 345.934 153.408 345.806 153.536C345.742 153.6 345.678 153.632 345.614 153.632C345.166 153.632 344.59 153.536 343.886 153.344C343.182 153.152 342.382 152.864 341.486 152.48C340.654 152.16 339.79 151.776 338.894 151.328C338.062 150.88 337.262 150.4 336.494 149.888ZM356.487 145.568C356.487 144.992 356.519 144.288 356.583 143.456C356.711 142.56 356.903 141.408 357.159 140C357.415 138.528 357.735 136.768 358.119 134.72C358.567 132.672 359.111 130.208 359.751 127.328C359.879 126.688 360.167 125.664 360.615 124.256C361.063 122.848 361.639 121.376 362.343 119.84C363.111 118.24 364.007 116.704 365.031 115.232C366.119 113.76 367.399 112.672 368.871 111.968C369.959 112.224 371.399 112.896 373.191 113.984C374.983 115.008 376.519 116.448 377.799 118.304C376.327 119.968 375.079 121.632 374.055 123.296C373.095 124.96 372.199 126.688 371.367 128.48C370.599 130.272 369.863 132.128 369.159 134.048C368.519 135.968 367.783 137.984 366.951 140.096C366.247 141.888 365.607 143.744 365.031 145.664C364.455 147.52 364.135 149.152 364.071 150.56C364.071 151.712 364.039 152.512 363.975 152.96C363.975 153.472 363.815 153.728 363.495 153.728C363.239 153.728 362.727 153.568 361.959 153.248C361.191 152.928 360.391 152.448 359.559 151.808C358.791 151.104 358.087 150.24 357.447 149.216C356.807 148.192 356.487 146.976 356.487 145.568ZM374.823 103.904C374.823 103.52 374.919 102.944 375.111 102.176C374.791 101.856 374.503 101.376 374.247 100.736C374.055 100.096 373.959 99.52 373.959 99.008C373.959 98.432 374.023 97.664 374.151 96.704C374.343 95.68 374.567 94.592 374.823 93.44C375.079 92.288 375.399 91.104 375.783 89.888C376.167 88.608 376.551 87.456 376.935 86.432C377.703 86.432 378.631 86.656 379.719 87.104C380.871 87.488 382.023 88.032 383.175 88.736C384.327 89.376 385.383 90.112 386.343 90.944C387.303 91.712 388.039 92.448 388.551 93.152C387.847 93.856 386.919 94.848 385.767 96.128C384.615 97.344 383.495 98.656 382.407 100.064C381.319 101.408 380.327 102.688 379.431 103.904C378.535 105.12 377.959 105.984 377.703 106.496C376.935 106.368 376.263 106.048 375.687 105.536C375.111 104.96 374.823 104.416 374.823 103.904ZM375.814 150.08C376.134 148.224 376.678 145.792 377.446 142.784C378.278 139.712 379.238 136.48 380.326 133.088C381.414 129.632 382.566 126.176 383.782 122.72C384.998 119.264 386.182 116.16 387.334 113.408C388.166 111.424 388.902 109.888 389.542 108.8C390.182 107.648 390.886 106.688 391.654 105.92C392.55 106.048 393.478 106.272 394.438 106.592C395.398 106.912 396.326 107.296 397.222 107.744C398.118 108.192 398.918 108.672 399.622 109.184C400.326 109.632 400.87 110.08 401.254 110.528C399.526 112.576 397.99 114.912 396.646 117.536C395.366 120.16 394.054 123.52 392.71 127.616C396.166 124.544 399.206 121.6 401.83 118.784C404.518 115.968 407.014 112.832 409.318 109.376C409.702 109.056 410.374 108.896 411.334 108.896C412.23 108.896 413.094 109.056 413.926 109.376C414.758 109.632 415.334 110.016 415.654 110.528C414.502 113.6 413.926 116.64 413.926 119.648C413.926 122.464 414.342 124.576 415.174 125.984C415.11 126.368 414.662 127.104 413.83 128.192C413.062 129.28 412.198 130.304 411.238 131.264C409.51 130.368 407.974 129.152 406.63 127.616C405.286 126.016 404.294 124.288 403.654 122.432C400.646 124.544 398.086 126.624 395.974 128.672C393.862 130.656 392.038 132.896 390.502 135.392C389.03 137.824 387.75 140.64 386.662 143.84C385.638 147.04 384.646 150.848 383.686 155.264C383.11 155.2 382.406 154.976 381.574 154.592C380.806 154.272 380.006 153.856 379.174 153.344C378.406 152.832 377.702 152.288 377.062 151.712C376.422 151.136 376.006 150.592 375.814 150.08ZM413.573 150.08C413.893 148.224 414.437 145.792 415.205 142.784C416.037 139.712 416.997 136.48 418.085 133.088C419.173 129.632 420.325 126.176 421.541 122.72C422.757 119.264 423.941 116.16 425.093 113.408C425.925 111.424 426.661 109.888 427.301 108.8C427.941 107.648 428.645 106.688 429.413 105.92C430.309 106.048 431.237 106.272 432.197 106.592C433.157 106.912 434.085 107.296 434.981 107.744C435.877 108.192 436.677 108.672 437.381 109.184C438.085 109.632 438.629 110.08 439.013 110.528C437.285 112.576 435.749 114.912 434.405 117.536C433.125 120.16 431.813 123.52 430.469 127.616C433.925 124.544 436.965 121.6 439.589 118.784C442.277 115.968 444.773 112.832 447.077 109.376C447.461 109.056 448.133 108.896 449.093 108.896C449.989 108.896 450.853 109.056 451.685 109.376C452.517 109.632 453.093 110.016 453.413 110.528C452.261 113.6 451.685 116.64 451.685 119.648C451.685 122.464 452.101 124.576 452.933 125.984C452.869 126.368 452.421 127.104 451.589 128.192C450.821 129.28 449.957 130.304 448.997 131.264C447.269 130.368 445.733 129.152 444.389 127.616C443.045 126.016 442.053 124.288 441.413 122.432C438.405 124.544 435.845 126.624 433.733 128.672C431.621 130.656 429.797 132.896 428.261 135.392C426.789 137.824 425.509 140.64 424.421 143.84C423.397 147.04 422.405 150.848 421.445 155.264C420.869 155.2 420.165 154.976 419.333 154.592C418.565 154.272 417.765 153.856 416.933 153.344C416.165 152.832 415.461 152.288 414.821 151.712C414.181 151.136 413.765 150.592 413.573 150.08ZM488.004 112.256C487.748 116.224 487.044 119.648 485.892 122.528C484.74 125.344 483.076 127.84 480.9 130.016C478.788 132.128 476.196 134.048 473.124 135.776C470.052 137.504 466.468 139.168 462.372 140.768C462.372 141.152 462.34 141.568 462.276 142.016C462.276 142.4 462.276 142.816 462.276 143.264C462.276 144.096 462.34 144.96 462.468 145.856C462.596 146.752 462.82 147.584 463.14 148.352C463.46 149.12 463.908 149.76 464.484 150.272C465.06 150.72 465.796 150.944 466.692 150.944C468.42 150.944 470.116 150.56 471.78 149.792C473.444 149.024 475.012 148.096 476.484 147.008C478.02 145.856 479.428 144.64 480.708 143.36C482.052 142.016 483.236 140.8 484.26 139.712C484.9 140.288 485.444 140.832 485.892 141.344C483.012 145.184 479.844 148.384 476.388 150.944C472.996 153.44 469.764 155.04 466.692 155.744C462.276 155.232 458.82 153.632 456.324 150.944C453.892 148.192 452.676 144.896 452.676 141.056C452.676 138.432 453.028 135.776 453.732 133.088C454.5 130.336 455.524 127.712 456.804 125.216C458.148 122.656 459.684 120.256 461.412 118.016C463.204 115.776 465.092 113.824 467.076 112.16C469.124 110.496 471.204 109.184 473.316 108.224C475.492 107.264 477.636 106.784 479.748 106.784C482.692 107.168 485.444 108.992 488.004 112.256ZM481.38 115.424C479.652 115.68 477.86 116.384 476.004 117.536C474.148 118.688 472.388 120.224 470.724 122.144C469.124 124.064 467.652 126.304 466.308 128.864C464.964 131.424 463.908 134.176 463.14 137.12C468.26 134.56 472.516 131.424 475.908 127.712C479.3 123.936 481.124 119.84 481.38 115.424ZM575.131 80.672C569.755 90.08 564.123 99.232 558.235 108.128C552.347 117.024 546.427 125.312 540.475 132.992C534.523 140.672 528.699 147.584 523.003 153.728C517.307 159.872 511.995 164.864 507.067 168.704C506.363 168.576 505.563 168.064 504.667 167.168C503.835 166.336 503.291 165.376 503.035 164.288C505.403 162.88 507.963 160.8 510.715 158.048C513.531 155.296 516.443 152.096 519.451 148.448C522.523 144.8 525.627 140.8 528.763 136.448C531.963 132.096 535.067 127.616 538.075 123.008C541.083 118.4 543.963 113.792 546.715 109.184C549.531 104.512 552.059 100.064 554.299 95.84C556.603 91.616 558.587 87.744 560.251 84.224C561.915 80.64 563.163 77.6 563.995 75.104C564.763 75.104 565.723 75.296 566.875 75.68C568.091 76.064 569.275 76.544 570.427 77.12C571.579 77.696 572.603 78.304 573.499 78.944C574.395 79.584 574.939 80.16 575.131 80.672ZM585.972 99.2C588.724 99.968 591.316 100.96 593.748 102.176C596.18 103.328 598.452 104.64 600.564 106.112C602.74 107.52 604.788 109.088 606.708 110.816C608.692 112.48 610.612 114.208 612.468 116C613.876 117.408 615.22 119.232 616.5 121.472C617.78 123.648 618.42 126.016 618.42 128.576C618.42 129.536 618.324 130.432 618.132 131.264C617.3 131.776 616.212 132.128 614.868 132.32C613.588 132.448 612.148 132.512 610.548 132.512C608.692 132.512 606.772 132.48 604.788 132.416C602.804 132.288 600.948 132.224 599.22 132.224C596.916 132.224 594.74 132.32 592.692 132.512C590.708 132.704 588.628 133.024 586.452 133.472C584.276 133.856 581.94 134.368 579.444 135.008C577.012 135.648 574.164 136.416 570.9 137.312C568.788 134.368 567.732 131.84 567.732 129.728C567.732 127.808 568.596 126.4 570.324 125.504C572.116 124.544 574.484 124 577.428 123.872C579.54 123.808 582.1 123.744 585.108 123.68C588.18 123.552 591.252 123.456 594.324 123.392C597.46 123.264 600.404 123.168 603.156 123.104C605.972 123.04 608.212 123.008 609.876 123.008C609.748 122.432 609.556 121.888 609.3 121.376C609.108 120.864 608.724 120.288 608.148 119.648C607.636 118.944 606.932 118.144 606.036 117.248C605.204 116.288 604.116 115.136 602.772 113.792C601.492 112.576 600.052 111.36 598.452 110.144C596.916 108.864 595.284 107.68 593.556 106.592C591.828 105.504 590.036 104.512 588.18 103.616C586.324 102.72 584.5 101.984 582.708 101.408C582.9 100.896 583.348 100.416 584.052 99.968C584.82 99.52 585.46 99.264 585.972 99.2Z" fill="black"/>
</svg>
