<svg width="3331" height="1779" viewBox="0 0 3331 1779" fill="none" xmlns="http://www.w3.org/2000/svg">
<g clip-path="url(#clip0_818_4)">
<path fill-rule="evenodd" clip-rule="evenodd" d="M3040 2067L840.003 -1332L-1360 2067H3040ZM2582.95 1825.82L2593.11 1841.5H2589.03C2587.05 1836.25 2585.02 1831.04 2582.95 1825.82ZM2308.41 1401.63L2122.64 1114.61C1263.79 299.626 569.78 114.882 208.047 147.409L4.39485 462.055C496.917 480.834 1704.87 752.638 2308.41 1401.63ZM-41.7325 533.329C20.0574 915.238 567.829 1674.89 2523.23 1841.5H1117.8C1107.7 1839.7 1097.32 1837.87 1086.63 1836C222.333 1685.16 -106.678 1070.14 -175.161 739.485L-41.7325 533.329ZM-406.869 1097.47C-395.528 1503.64 -80.2485 1739.49 99.996 1841.5H-509.316C-592.181 1745.74 -612.606 1559.21 -609.871 1411.09L-406.869 1097.47ZM1805.6 624.792C1620.93 438.91 1054 -91.6582 402.157 -152.485L619.081 -487.644C905.407 -430.967 1260.14 -116.184 1690.3 446.659L1805.6 624.792ZM1024.97 1352.01C581.024 1237.6 453.6 849.675 445.377 669.996C605.694 659.001 864.654 746.996 963.315 802.006C996.208 890.002 913.994 941.341 864.654 956.007C889.324 1055 1014.82 1132.39 1197.62 1165C1382.59 1198 1567.58 1128.33 1641.57 1065.99C1707.34 1106.34 1848.74 1195.79 1888.19 1231.01C1838.87 1286 1579.89 1494.99 1024.97 1352.01Z" fill="#030303" fill-opacity="0.03"/>
</g>
<defs>
<clipPath id="clip0_818_4">
<rect width="3331" height="1779" fill="white"/>
</clipPath>
</defs>
</svg>
